<?xml version="1.0" encoding="utf-8"?>
<svg version="1.1" xmlns="http://www.w3.org/2000/svg" viewBox="0 0 80 50">
	<style>.symbolFill{fill: white;} .symbolLine{stroke: white;}</style>
	<rect width="80" height="50"/><rect width="80" height="10" y="40" fill="#E33"/>
	<use href="symbolMadokami.svg#init" transform="scale(.5)" x="90" y="18"/>
	<g fill="gold" transform="scale(.0559) translate(0,175)">
		<path d="m204 148q-2.67-0.456-3.45 1.17-0.781 1.56 1.17 3.84 0.586 0.846 1.82 1.5 1.24 0.651 2.73 0.586 1.56-0.0651 2.54-1.3 0.195-0.26 0.26-0.651 0.13-0.391 0.13-0.716 0-0.391 0-1.11 0-0.716 0-1.04-0.13-0.0651-0.326-0.26-0.781-0.586-1.24-0.846-0.456-0.326-1.37-0.586-0.846-0.326-2.28-0.586zm41.1 2.73q-1.95 1.24-4.23 1.5-2.21 0.195-4.36-0.13-0.195 1.24-0.195 4.36 0.0651 3.06 0.651 4.1 2.86 1.3 5.27 0.846 2.47-0.521 2.73-2.02 0.716-4.04 0.13-8.66zm-8.59-21.7v9.11q5.08-2.54 9.11 1.37 0-0.391 0-5.27 0.0651-4.88 0.0651-5.21-1.95 0.651-4.62 0.651-2.6-0.0651-4.56-0.651zm9.18-22.9q-5.21 0.977-9.18 0v9.18q4.56-1.43 9.18 0zm-51.8-22.8q1.95-0.326 3.91-0.521 2.02-0.26 4.43-0.326 2.47-0.0651 3.78-0.0651 1.37-0.0651 4.43-0.0651 3.12 0 3.97 0 15.2 0 20.1-0.326-4.1 3.58-4.17 6.97-0.0651 2.8 1.63 4.36 1.37 1.24 4.1 2.08 2.73 0.846 4.62 0.326 2.54-0.586 3.58-2.21 1.11-1.69 0.911-3.78-0.13-1.95-1.69-4.17-1.56-2.21-4.36-3.97 3.91-0.13 9.9-0.326 6.05-0.195 9.51-0.26 3.45-0.13 7.88-0.326 4.49-0.195 8.07-0.456 6.18-0.0651 8.85 4.36-4.62-0.781-7.49 2.02-2.86 2.73-2.86 7.29 0 12.6-0.781 34.6-0.716 22.1-0.716 32.4 0 3.58-1.37 6.51-1.3 2.86-3.45 4.56-2.15 1.69-4.43 2.6-2.28 0.846-4.56 0.977-3.84 0.13-6.9-0.456-3.06-0.586-6.32-2.47-1.95-1.17-3.84-3.06-1.89-1.89-3.12-2.93-1.24-1.11-2.54-1.04-1.5 0.13-3.06 1.11t-2.54 2.02q-0.977 0.977-2.34 2.67-2.08 2.67-5.6 4.1-3.52 1.37-7.36 1.56-3.65 0.195-8.14-1.04-4.49-1.24-7.03-3.26-3.12-2.47-4.75-4.69t-2.02-5.34q-0.521-4.43 0.521-9.83 1.11-5.4 3.65-8.59 1.11-1.37 2.6-1.76 1.56-0.391 3.45 0.195 1.95 0.521 3.32 1.17 1.43 0.651 3.45 1.76 0-30.5 0.0651-41.4 0.0651-1.24-0.195-2.86t-0.781-3.52q-0.521-1.89-1.69-3.26-1.17-1.43-2.73-1.69-1.3-0.13-2.28-0.195-0.911-0.0651-2.08 0.13-1.11 0.195-1.82 0.716-0.716 0.521-1.17 1.63-0.391 1.11-0.195 2.73 0.0651 1.04 0.391 1.63 0.391 0.586 1.04 0.716 0.651 0.13 1.24 0.13 0.651 0 1.63-0.391 1.04-0.391 1.63-0.651 0.651-0.26 1.76-0.781 0.326-0.13 0.456-0.26 0 2.6-1.43 4.75-1.43 2.08-3.58 3.12-2.08 0.977-4.69 0.586-2.6-0.456-4.75-2.54-2.54-2.54-3.65-7.36-1.04-4.82 0.521-8.14 0.911-1.89 2.99-3.52t4.1-1.95z"/>
		<path d="m826 80.8h24.3q4.95 0-2.67 8.33-0.195 0.13-0.26 0.26-3.26 3.58-5.27 6.05-2.02 2.41-4.62 6.25-2.54 3.78-3.91 7.29-1.82 4.56-3.26 9.11-1.43 4.49-2.6 9.96-1.11 5.47-1.37 10.4-0.26 4.88 0.651 9.9 0.911 5.01 3.12 8.98 2.67 4.69 7.1 6.84 4.49 2.15 8.92 1.17 3.71-0.846 7.03-5.66 3.39-4.82 4.23-9.64 0.716-4.62-0.456-9.24-1.17-4.69-4.04-5.86-1.69-0.716-2.54 0.716-0.716 1.3 0.456 2.08 0.391 0.26 0.977 0.391 1.76 0.326 2.41 2.21 0.651 1.89 0.0651 4.23-0.521 2.34-2.08 4.1-1.63 1.89-4.17 2.93-2.47 0.977-5.08 0.846-5.99-0.195-8.33-4.62-2.02-3.84-0.0651-8.92 1.95-5.14 5.53-7.88 3.91-3.06 8.72-3.06 2.54-0.0651 4.95 0.651 2.41 0.651 4.49 2.08 2.15 1.43 3.71 3.97 1.56 2.54 2.08 5.92 1.24 7.16 0.13 13-1.11 5.73-4.69 11-3.58 5.4-8.59 7.94-5.01 2.54-9.64 2.6-3.58 0.13-6.71-1.04-3.12-1.17-5.53-3.26-2.41-2.08-4.17-4.49-1.76-2.47-2.99-5.27-1.69-3.71-2.67-8.59-0.911-4.95-0.846-9.7 0.0651-11.1 1.3-17.3 0.391-1.82-0.0651-2.67-0.456-0.911-1.5-0.846-0.977 0.0651-2.08 0.651-1.11 0.521-2.08 1.37-7.88 6.84-10.9 13.5-2.21 4.95-2.67 10.5-0.391 5.47 1.04 9.96 1.5 4.82 4.3 7.94 2.8 3.12 6.84 5.66 0.911 0.586 1.04 1.56 0.195 0.977-0.391 1.76-0.521 0.716-1.3 0.651l-15.6-1.37q-2.86-0.195-5.47-2.99-2.54-2.86-3.97-6.51-1.37-3.65-1.5-6.84-0.26-4.49 0.586-8.66 0.846-4.23 2.21-7.36 1.37-3.19 3.78-6.58 2.47-3.45 4.62-5.79 2.15-2.34 5.34-5.53 4.1-4.04 8.85-7.03 4.75-2.99 11.7-6.38 0.651-1.69 2.73-5.86 2.08-4.23 2.6-5.34 0.26-0.521 0.977-2.02 0.781-1.56 1.04-2.21 0.26-0.651 0.651-1.76 0.456-1.11 0.521-1.95 0.0651-0.911 0-1.76-0.195-1.56-1.04-2.21-0.781-0.651-1.69-0.586-0.846 0-1.95-0.13-1.11-0.195-1.76-0.846-1.43-1.43-0.911-3.19 0.521-1.76 2.41-1.76z"/>
		<path d="m631 247h24.3q4.95 0-2.67 8.33-0.195 0.13-0.26 0.26-3.26 3.58-5.27 6.05-2.02 2.41-4.62 6.25-2.54 3.78-3.91 7.29-1.82 4.56-3.26 9.11-1.43 4.49-2.6 9.96-1.11 5.47-1.37 10.4-0.26 4.88 0.651 9.9 0.911 5.01 3.12 8.98 2.67 4.69 7.1 6.84 4.49 2.15 8.92 1.17 3.71-0.846 7.03-5.66 3.39-4.82 4.23-9.64 0.716-4.62-0.456-9.24-1.17-4.69-4.04-5.86-1.69-0.716-2.54 0.716-0.716 1.3 0.456 2.08 0.391 0.26 0.977 0.391 1.76 0.326 2.41 2.21 0.651 1.89 0.0651 4.23-0.521 2.34-2.08 4.1-1.63 1.89-4.17 2.93-2.47 0.977-5.08 0.846-5.99-0.195-8.33-4.62-2.02-3.84-0.0651-8.92 1.95-5.14 5.53-7.88 3.91-3.06 8.72-3.06 2.54-0.0651 4.95 0.651 2.41 0.651 4.49 2.08 2.15 1.43 3.71 3.97 1.56 2.54 2.08 5.92 1.24 7.16 0.13 13-1.11 5.73-4.69 11-3.58 5.4-8.59 7.94-5.01 2.54-9.64 2.6-3.58 0.13-6.71-1.04-3.12-1.17-5.53-3.26-2.41-2.08-4.17-4.49-1.76-2.47-2.99-5.27-1.69-3.71-2.67-8.59-0.911-4.95-0.846-9.7 0.0651-11.1 1.3-17.3 0.391-1.82-0.0651-2.67-0.456-0.911-1.5-0.846-0.977 0.0651-2.08 0.651-1.11 0.521-2.08 1.37-7.88 6.84-10.9 13.5-2.21 4.95-2.67 10.5-0.391 5.47 1.04 9.96 1.5 4.82 4.3 7.94 2.8 3.12 6.84 5.66 0.911 0.586 1.04 1.56 0.195 0.977-0.391 1.76-0.521 0.716-1.3 0.651l-15.6-1.37q-2.86-0.195-5.47-2.99-2.54-2.86-3.97-6.51-1.37-3.65-1.5-6.84-0.26-4.49 0.586-8.66 0.846-4.23 2.21-7.36 1.37-3.19 3.78-6.58 2.47-3.45 4.62-5.79 2.15-2.34 5.34-5.53 4.1-4.04 8.85-7.03 4.75-2.99 11.7-6.38 0.651-1.69 2.73-5.86 2.08-4.23 2.6-5.34 0.26-0.521 0.977-2.02 0.781-1.56 1.04-2.21 0.26-0.651 0.651-1.76 0.456-1.11 0.521-1.95 0.0651-0.911 0-1.76-0.195-1.56-1.04-2.21-0.781-0.651-1.69-0.586-0.846 0-1.95-0.13-1.11-0.195-1.76-0.846-1.43-1.43-0.911-3.19 0.521-1.76 2.41-1.76z"/>
		<path d="m94.4 247h24.3q4.95 0-2.67 8.33-0.195 0.13-0.26 0.26-3.26 3.58-5.27 6.05-2.02 2.41-4.62 6.25-2.54 3.78-3.91 7.29-1.82 4.56-3.26 9.11-1.43 4.49-2.6 9.96-1.11 5.47-1.37 10.4-0.26 4.88 0.651 9.9 0.911 5.01 3.12 8.98 2.67 4.69 7.1 6.84 4.49 2.15 8.92 1.17 3.71-0.846 7.03-5.66 3.39-4.82 4.23-9.64 0.716-4.62-0.456-9.24-1.17-4.69-4.04-5.86-1.69-0.716-2.54 0.716-0.716 1.3 0.456 2.08 0.391 0.26 0.977 0.391 1.76 0.326 2.41 2.21 0.651 1.89 0.0651 4.23-0.521 2.34-2.08 4.1-1.63 1.89-4.17 2.93-2.47 0.977-5.08 0.846-5.99-0.195-8.33-4.62-2.02-3.84-0.0651-8.92 1.95-5.14 5.53-7.88 3.91-3.06 8.72-3.06 2.54-0.0651 4.95 0.651 2.41 0.651 4.49 2.08 2.15 1.43 3.71 3.97 1.56 2.54 2.08 5.92 1.24 7.16 0.13 13-1.11 5.73-4.69 11-3.58 5.4-8.59 7.94-5.01 2.54-9.64 2.6-3.58 0.13-6.71-1.04-3.12-1.17-5.53-3.26-2.41-2.08-4.17-4.49-1.76-2.47-2.99-5.27-1.69-3.71-2.67-8.59-0.911-4.95-0.846-9.7 0.0651-11.1 1.3-17.3 0.391-1.82-0.0651-2.67-0.456-0.911-1.5-0.846-0.977 0.0651-2.08 0.651-1.11 0.521-2.08 1.37-7.88 6.84-10.9 13.5-2.21 4.95-2.67 10.5-0.391 5.47 1.04 9.96 1.5 4.82 4.3 7.94 2.8 3.12 6.84 5.66 0.911 0.586 1.04 1.56 0.195 0.977-0.391 1.76-0.521 0.716-1.3 0.651l-15.6-1.37q-2.86-0.195-5.47-2.99-2.54-2.86-3.97-6.51-1.37-3.65-1.5-6.84-0.26-4.49 0.586-8.66 0.846-4.23 2.21-7.36 1.37-3.19 3.78-6.58 2.47-3.45 4.62-5.79 2.15-2.34 5.34-5.53 4.1-4.04 8.85-7.03 4.75-2.99 11.7-6.38 0.651-1.69 2.73-5.86 2.08-4.23 2.6-5.34 0.26-0.521 0.977-2.02 0.781-1.56 1.04-2.21t0.651-1.76q0.456-1.11 0.521-1.95 0.0651-0.911 0-1.76-0.195-1.56-1.04-2.21-0.781-0.651-1.69-0.586-0.846 0-1.95-0.13-1.11-0.195-1.76-0.846-1.43-1.43-0.911-3.19t2.41-1.76z"/>
		<path d="m315 66.7q0-4.23 3.12-7.23 3.12-3.06 7.49-3.06 4.36 0 7.49 3.06 3.12 2.99 3.12 7.23 0 4.3-3.12 7.29-3.12 2.99-7.55 2.99t-7.42-2.99q-3.12-2.99-3.12-7.29zm45.7 0.26q0-4.23 3.12-7.23 3.12-3.06 7.62-3.06t7.62 3.06q3.12 2.99 3.12 7.23 0 4.36-3.26 7.36-2.99 2.99-7.49 2.99t-7.62-2.99-3.12-7.36zm-35.9 33.7q4.56-7.68 8.66-11.6 4.17-3.91 10.5-6.38 4.43-1.76 9.31-2.02 4.88-0.326 9.77 1.17 4.95 1.5 8.46 4.88 8.27 7.81 11.2 18.9 2.93 11.1 1.11 24.3-2.02 14.9-7.29 22.5-3.97 5.66-8.66 9.37-4.62 3.65-10.5 6.45-7.55 3.58-17 5.53-9.37 1.95-19.3 1.69-9.96-0.26-17.4-3.19-7.16-2.73-11.8-8.46t-5.08-12.7q-0.13-2.93 0.846-5.66 0.977-2.8 2.6-4.88 1.95-2.41 5.01-3.78 3.12-1.37 5.66-0.716 3.26 0.781 4.88 1.95 1.69 1.17 2.93 3.45 1.82 3.71 1.43 7.88-0.326 4.17-2.28 6.58-2.15 2.6-4.36 3.71-0.586 0.326-1.69 0.716-1.04 0.326-1.56 0.586-0.456 0.26-0.391 0.651 0.456 2.54 4.04 4.1 3.65 1.56 8.4 2.02 4.82 0.456 8.92 0.456 4.1-0.0651 6.64-0.391 4.62-0.651 8.66-2.08 4.1-1.43 7.62-3.65 3.52-2.28 5.99-5.73t3.58-7.75q3.58-14.3-3.52-21.2-4.43-3.91-10.6-3.84-6.12 0.0651-10 3.45-1.69 1.43-2.54 3.26-0.781 1.82-1.17 5.66-0.326 3.78-0.326 11.1h-7.81q0-6.12 0-17.4 0-11.3 0-19.4 0-3.32-0.781-6.45-0.781-3.12-2.28-4.36-1.37-1.24-2.86-1.04-1.5 0.195-2.08 1.82-0.391 1.24 0.13 4.1 0.521 2.8 0.586 3.58 0.13 4.62-1.56 8.2-1.69 3.58-4.88 5.08-3.39 1.37-6.32 0.326-2.86-1.04-4.95-3.58-2.08-2.6-2.54-5.66-0.911-5.79 0.716-10.4 0.716-2.08 2.54-4.3 1.89-2.21 3.71-3.58 3.12-2.28 7.49-3.12 4.43-0.846 8.2-0.195t7.1 3.58q3.32 2.93 5.01 6.45z"/>
		<path d="m537 247q30.9 3.06 36.6 2.41-1.76 2.08-3.39 3.32-1.56 1.17-3.97 2.08v21.2q3.06-1.17 5.47-1.3 2.47-0.13 4.1 0.456 1.69 0.586 3.78 2.02 1.43 0.977 2.15 3.19 0.781 2.21 0.716 4.23-0.0651 2.02-0.195 3.65-0.456 2.6-1.82 4.04-1.37 1.37-4.17 2.86-4.95 2.67-10.1 0.521l0.0651 12.2q6.18-3.52 10.8-2.54 2.21 0.521 4.23 2.86 2.08 2.28 2.86 4.88 0.456 1.76 0.0651 4.04-0.391 2.21-1.24 3.45-2.67 3.97-6.51 5.6-4.23 1.69-10.2-0.13v7.62q0 1.43 0.716 2.8 0.781 1.37 1.69 2.21 0.977 0.846 2.08 2.02 1.11 1.11 1.56 2.02h-34.8q-7.49 0-11.7-1.37-4.17-1.37-5.6-3.84-1.43-2.54-1.04-6.64 0.13-2.6 1.3-4.43 1.17-1.89 2.86-2.6 1.69-0.781 3.65-0.716 2.02 0 3.84 0.911 2.34 1.11 3.45 2.21 1.17 1.04 2.15 2.67-1.5-0.716-2.41-0.977-0.846-0.26-2.02-0.0651-1.11 0.195-2.34 1.11-1.17 0.846-1.3 1.82-0.13 0.911 0.521 1.56t1.3 1.04q0.716 0.391 1.17 0.521 3.52 0.781 6.38-0.977 2.86-1.82 4.3-4.88 1.5-3.12 1.5-6.51v-66.7q-0.456 0-1.63 0-1.17-0.0651-1.56 0-0.391 0-1.17 0.13-0.716 0.0651-1.24 0.391-0.456 0.26-0.911 0.716-0.977 0.977-1.04 2.73-0.0651 1.69 0.521 3.19 0.651 1.5 1.5 2.54 0.521 0.651 2.28 1.63 1.82 0.911 2.34 1.43-1.63 0.521-2.6 0.716-0.911 0.13-2.99-0.0651-5.99-0.651-7.81-3.52-1.11-1.69-1.3-4.1-0.13-2.47 0.521-4.82 0.716-2.41 1.89-4.49 1.24-2.08 2.99-3.26 1.82-1.17 3.71-1.04z"/>
		<path d="m152 247h49.3q1.24 0 2.02 0.521t0.977 1.3q0.26 0.716 0.195 1.43-0.0651 0.716-0.326 1.17-0.651 1.17-1.56 1.5-0.846 0.26-3.06 0.391-1.17 0.13-2.21 0.456-0.977 0.26-1.43 0.456-0.391 0.195-1.43 0.781-3.78 2.08-3.78 5.66v48q0 12.3-4.17 20.2-2.6 4.82-6.71 8.07-4.1 3.26-9.05 4.1-13.5 2.28-21.4-3.65-4.62-3.52-6.12-7.68-1.56-4.43-0.521-8.92 0.521-2.41 1.95-4.95 1.43-2.6 3.32-4.04 1.76-1.24 3.12-0.977 1.37 0.26 2.02 1.56t0 2.73q-0.651 1.63-1.04 2.67-0.326 0.977-0.651 2.28-0.26 1.24-0.26 2.41 0.0651 1.17 0.391 2.47 1.5 6.58 8.14 7.81 3.71 0.716 6.9-0.13 3.26-0.911 5.6-3.06 2.34-2.15 3.97-4.82 1.69-2.73 2.67-5.92 1.69-5.53 2.08-12.6 0.651-12.4-3.32-20.4-0.0651-0.26-0.326-0.716-0.586-1.24-0.977-1.95-0.326-0.716-1.11-1.95-0.716-1.24-1.37-1.89t-1.5-1.24q-0.781-0.586-1.63-0.456-0.846 0.0651-1.76 0.781-0.781 0.716-1.5 2.02-0.651 1.24-1.43 3.12-0.716 1.82-1.04 2.54-4.88 10.1-12.8 9.9-6.25-0.0651-9.7-4.04-3.39-4.04-2.93-9.77 0.26-3.84 2.73-5.34 2.02-1.24 3.26 0.521 0.586 0.846 0.716 2.28 0.26 2.6 1.3 5.01 1.24 2.8 3.39 3.52 2.15 0.651 4.75-1.24 3.19-2.34 4.56-7.55 1.43-5.27 1.43-11.3 0-2.54-0.977-4.88-0.911-2.41-2.67-4.62-1.76-2.21-3.19-3.58-1.37-1.37-3.45-3.26-0.781-0.651-1.37-1.3-0.586-0.716-0.977-1.5-0.391-0.846 0.26-1.37 0.716-0.521 2.6-0.521z"/>
		<path d="m802 247h49.3q1.24 0 2.02 0.521t0.977 1.3q0.26 0.716 0.195 1.43-0.0651 0.716-0.326 1.17-0.651 1.17-1.56 1.5-0.846 0.26-3.06 0.391-1.17 0.13-2.21 0.456-0.977 0.26-1.43 0.456-0.391 0.195-1.43 0.781-3.78 2.08-3.78 5.66v48q0 12.3-4.17 20.2-2.6 4.82-6.71 8.07-4.1 3.26-9.05 4.1-13.5 2.28-21.4-3.65-4.62-3.52-6.12-7.68-1.56-4.43-0.521-8.92 0.521-2.41 1.95-4.95 1.43-2.6 3.32-4.04 1.76-1.24 3.12-0.977 1.37 0.26 2.02 1.56t0 2.73q-0.651 1.63-1.04 2.67-0.326 0.977-0.651 2.28-0.26 1.24-0.26 2.41 0.0651 1.17 0.391 2.47 1.5 6.58 8.14 7.81 3.71 0.716 6.9-0.13 3.26-0.911 5.6-3.06 2.34-2.15 3.97-4.82 1.69-2.73 2.67-5.92 1.69-5.53 2.08-12.6 0.651-12.4-3.32-20.4-0.0651-0.26-0.326-0.716-0.586-1.24-0.977-1.95-0.326-0.716-1.11-1.95-0.716-1.24-1.37-1.89t-1.5-1.24q-0.781-0.586-1.63-0.456-0.846 0.0651-1.76 0.781-0.781 0.716-1.5 2.02-0.651 1.24-1.43 3.12-0.716 1.82-1.04 2.54-4.88 10.1-12.8 9.9-6.25-0.0651-9.7-4.04-3.39-4.04-2.93-9.77 0.26-3.84 2.73-5.34 2.02-1.24 3.26 0.521 0.586 0.846 0.716 2.28 0.26 2.6 1.3 5.01 1.24 2.8 3.39 3.52 2.15 0.651 4.75-1.24 3.19-2.34 4.56-7.55 1.43-5.27 1.43-11.3 0-2.54-0.977-4.88-0.911-2.41-2.67-4.62-1.76-2.21-3.19-3.58-1.37-1.37-3.45-3.26-0.781-0.651-1.37-1.3-0.586-0.716-0.977-1.5-0.391-0.846 0.26-1.37 0.716-0.521 2.6-0.521z"/>
		<path d="m325 296q-7.81 0.651-13.9 7.75-3.12 3.58-4.23 8.59t0.26 9.51q1.56 5.4 5.27 8.79 3.71 3.39 8.59 4.23 6.77 1.17 10.6-3.65 0.521-0.586 0.716-1.04 0.26-0.521 0.391-1.04 0.13-0.586-0.26-1.04-0.326-0.456-1.17-0.781-2.86-1.24-5.01-3.45-2.15-2.28-2.86-5.21-0.716-2.93 0.911-6.05 1.24-2.28 3.32-3.58t4.17-1.3q2.15 0 4.1 0.911 1.3 0.651 2.15 0.651 0.911 0 1.3-0.456 0.391-0.456 0.586-1.24 0.195-0.781 0.13-1.43 0-0.716-0.0651-1.3-0.456-2.54-2.21-4.43-1.69-1.95-4.04-2.86-2.28-0.911-4.56-1.3-2.28-0.391-4.17-0.26zm-32-35.5q10.2-9.05 21.9-11.8 11.8-2.8 23 0.911 11.3 3.71 20.4 13.3 3.39 3.58 5.86 8.4 2.47 4.75 3.78 9.51 1.3 4.69 1.89 9.64 0.586 4.95 0.521 8.98-0.0651 3.97-0.586 7.16 15.7 22.5 4.43 32.4-2.73 2.21-6.84 3.52-4.04 1.3-7.62 1.24-3.52 0-5.14-1.3-1.56-1.24-1.95-2.41-0.391-1.24 0.391-2.41 0.846-1.17 1.69-1.95 0.911-0.846 2.41-1.95 1.56-1.17 2.08-1.63 2.67-2.47 3.97-4.95 1.3-2.47 1.37-4.17 0.195-4.17-1.24-4.1-0.586 0.0651-1.24 0.911-3.19 3.84-5.27 6.25-2.08 2.34-5.27 5.4-3.12 3.06-5.79 4.95-2.67 1.82-6.18 3.39-3.52 1.56-7.16 2.08-5.21 0.846-10.9 0.651-5.66-0.195-10.2-1.43-4.49-1.3-9.11-3.65-4.62-2.41-8.27-5.27-7.68-6.12-11.6-13.8-3.91-7.68-4.56-17.4-0.977-12.8 3.26-23.1 4.23-10.3 11.9-17.3z"/>
		<path d="m683 129q-7.81 0.651-13.9 7.75-3.12 3.58-4.23 8.59t0.26 9.51q1.56 5.4 5.27 8.79 3.71 3.39 8.59 4.23 6.77 1.17 10.6-3.65 0.521-0.586 0.716-1.04 0.26-0.521 0.391-1.04 0.13-0.586-0.26-1.04-0.326-0.456-1.17-0.781-2.86-1.24-5.01-3.45-2.15-2.28-2.86-5.21t0.911-6.05q1.24-2.28 3.32-3.58t4.17-1.3q2.15 0 4.1 0.911 1.3 0.651 2.15 0.651 0.911 0 1.3-0.456 0.391-0.456 0.586-1.24 0.195-0.781 0.13-1.43 0-0.716-0.0651-1.3-0.456-2.54-2.21-4.43-1.69-1.95-4.04-2.86-2.28-0.911-4.56-1.3-2.28-0.391-4.17-0.26zm-32-35.5q10.2-9.05 21.9-11.8 11.8-2.8 23 0.911 11.3 3.71 20.4 13.3 3.39 3.58 5.86 8.4 2.47 4.75 3.78 9.51 1.3 4.69 1.89 9.64 0.586 4.95 0.521 8.98-0.0651 3.97-0.586 7.16 15.7 22.5 4.43 32.4-2.73 2.21-6.84 3.52-4.04 1.3-7.62 1.24-3.52 0-5.14-1.3-1.56-1.24-1.95-2.41-0.391-1.24 0.391-2.41 0.846-1.17 1.69-1.95 0.911-0.846 2.41-1.95 1.56-1.17 2.08-1.63 2.67-2.47 3.97-4.95 1.3-2.47 1.37-4.17 0.195-4.17-1.24-4.1-0.586 0.0651-1.24 0.911-3.19 3.84-5.27 6.25-2.08 2.34-5.27 5.4-3.12 3.06-5.79 4.95-2.67 1.82-6.18 3.39-3.52 1.56-7.16 2.08-5.21 0.846-10.9 0.651-5.66-0.195-10.2-1.43-4.49-1.3-9.11-3.65-4.62-2.41-8.27-5.27-7.68-6.12-11.6-13.8-3.91-7.68-4.56-17.4-0.977-12.8 3.26-23.1 4.23-10.3 11.9-17.3z"/>
		<path d="m523 107q2.93 2.93 2.93 7.1 0 4.1-2.93 7.03t-7.1 2.93q-4.1 0-7.03-2.93t-2.93-7.03q0-4.17 2.93-7.1t7.03-2.93q4.17 0 7.1 2.93zm-38.2 8.01q0.13-14.3 8.79-24 4.17-4.69 9.37-7.16 5.21-2.47 12.3-2.8 7.49-0.326 13.2 2.21 5.79 2.47 10.5 7.62 9.18 9.83 9.11 23.7 0 4.88-1.11 9.77-1.11 4.82-2.8 8.72-1.63 3.91-4.49 8.53-2.8 4.56-5.27 7.88-2.41 3.26-6.18 7.94-4.95 6.25-11.2 11.1-6.25 4.82-10.3 5.99-4.04 1.3-7.29 1.04-3.26-0.26-5.73-1.37-2.41-1.11-4.23-3.26-1.82-2.15-2.99-4.69-1.11-2.54-1.76-5.6-0.586-3.12 0.521-6.05t3.71-4.62q1.82-1.24 3.78-0.977 2.02 0.195 3.58 1.17 1.63 0.977 2.34 2.99 0.781 1.95 0.13 4.23-0.195 0.586-0.716 1.95-0.521 1.37-0.781 2.21-0.195 0.846-0.26 1.89-0.0651 1.04 0.521 1.76 0.651 0.716 2.02 1.17 3.45 1.04 6.84-1.04 3.39-2.15 5.21-6.12 0.911-2.02 0.977-3.84 0.13-1.89-0.846-3.58-0.911-1.76-2.93-2.93-10.2-5.99-14.3-10.3-9.96-10.6-9.83-23.6zm31.4-25.8q-4.75-0.26-9.31 1.63-4.56 1.82-7.88 5.53-7.36 8.27-7.29 18.4 0.0651 4.75 1.69 9.44 1.63 4.62 4.56 8.46 2.93 3.78 7.42 6.25 4.56 2.47 9.83 2.8 8.07 0.391 15.8-8.85 5.92-7.16 6.25-17.8 0.13-4.88-1.17-9.24-1.24-4.43-3.78-8.01-2.47-3.65-6.64-5.92-4.1-2.28-9.44-2.6z"/>
		<path d="m250 250q3.12 3.39 3.12 8.2 0 4.75-3.12 8.14-3.12 3.39-7.55 3.39-4.36 0-7.49-3.39-3.12-3.39-3.12-8.14 0-4.82 3.12-8.2 3.12-3.45 7.49-3.45 4.43 0 7.55 3.45zm15.8 21q0.781-0.911 3.78-0.911 2.28 0 2.08 0.846 0 0.13-0.0651 0.326-6.25 9.44-9.96 16.6-3.65 7.16-6.38 16.5-1.63 5.47-1.89 11.4-0.26 5.86 0.977 11.5 1.3 5.6 4.1 9.37 0.586 0.781 0.911 1.63 0.391 0.781 0.456 1.63t-0.586 1.37q-0.586 0.521-1.95 0.521h-39.3q-1.37 0-2.47-1.3-1.11-1.37-1.3-2.67-0.0651-0.326 0-0.651t0.26-0.716q0.195-0.391 0.326-0.651 0.195-0.326 0.586-0.781 0.391-0.456 0.586-0.651t0.651-0.716 0.586-0.651q1.37-1.56 6.18-8.14 4.82-6.64 10.8-15 6.05-8.4 8.79-12-5.47 1.04-10.4 0.977-4.88-0.13-9.11-1.82t-7.49-4.56q-3.19-2.86-5.21-7.23-2.02-4.43-2.54-9.96-0.521-5.99 1.11-12.8 1.63-6.9 5.08-12.2 0.651-0.977 1.56-1.63 0.977-0.716 1.82-0.846 0.911-0.13 1.43 0.781 0.326 0.651 0.391 2.67 0.13 2.02 0.0651 4.82-0.0651 2.73-0.0651 3.12 0.13 6.51 1.24 10.6 1.17 4.04 3.91 6.77 5.27 5.4 17.3 5.92 6.38 0.26 12.9-3.12 6.51-3.39 10.9-8.33z"/>
		<path d="m912 149q7.62 0.521 11.2 5.47 3.65 4.88 2.21 12.3-0.521 2.73-2.15 4.62-1.56 1.89-3.65 2.67-2.02 0.781-4.43 1.11-2.34 0.326-4.49 0-3.12-0.391-5.86-1.76-2.73-1.37-4.62-3.58-1.89-2.28-2.6-5.21-0.716-2.99 0.195-6.51 0.716-2.73 2.15-4.62 1.5-1.95 3.45-2.93t4.04-1.3q2.15-0.391 4.56-0.26zm-18.3-25.7q0.391-3.26 2.47-6.51 2.08-3.32 5.34-5.27 2.08-1.3 4.88-1.63t5.66 0.521q2.93 0.781 5.4 2.47 2.54 1.69 4.23 4.75 1.69 3.06 1.89 6.97 3.45-2.54 5.14-6.32 1.76-3.84 1.69-7.88-0.0651-4.1-1.56-8.27-1.5-4.17-4.1-7.49-2.54-3.39-6.32-5.6-3.71-2.28-7.81-2.6-6.05-0.456-11.8 2.6-5.73 2.99-9.64 8.79-2.6 3.97-3.19 9.05-0.586 5.08 1.43 9.7 2.02 4.62 6.25 6.71zm-21.6-16q1.82-6.71 5.27-11.8 3.52-5.14 8.4-8.4 4.95-3.26 10.8-5.01 5.92-1.76 13-2.15 12-0.586 24.2 7.55 6.38 4.3 9.77 11.5 3.39 7.16 2.8 15.4-0.521 8.14-5.14 14.9-3.52 5.27-9.18 8.46-5.6 3.19-12.5 4.3-5.4 0.911-11.1 0.911-5.73 0-11.5-0.911-5.73-0.911-10.8-3.26-5.01-2.41-8.07-6.05-4.23-4.95-5.92-12-1.69-7.1-0.0651-13.3z"/>
		<path d="m569 141q-0.195 0.977-0.846 3.58-0.651 2.54-1.17 4.82-0.456 2.28-0.651 4.17-0.521 3.26 0.26 5.66 0.781 2.41 2.54 3.71 1.82 1.3 4.3 2.21 2.47 0.911 5.21 1.11 2.8 0.13 5.6 0.26t5.27-0.0651q1.69 0 2.41 0 12.6-0.195 22.3-2.86v-22.6zm40.4-44.2q-3.78-0.391-8.07 1.24-4.3 1.63-8.2 4.56-3.84 2.93-7.55 6.64-3.71 3.65-6.51 7.49-3.65 5.34-6.71 11.3h41.9l-0.0651-26.5q0-2.28-1.24-3.32-1.17-1.11-3.52-1.43zm19.5 21v54.9q-0.13 0.521-3.58 1.11-3.45 0.586-9.31 0.977-0.521 0-0.977-0.13-0.391-0.13-0.586-0.391-0.195-0.26-0.391-0.456-0.13-0.26-0.195-0.586 0-0.391 0-0.586t0-0.521 0-0.326q-21.6 3.45-39.8 3.45-3.26 0-6.05-0.391-2.73-0.391-5.34-1.37-2.54-1.04-4.3-2.6-1.76-1.56-2.73-4.04-0.977-2.47-0.716-5.66 0.911-16.5 6.58-32 5.66-15.6 15.3-27.9 16.5-20.6 35.5-20.5 2.8 0 5.08 0.716 2.34 0.651 3.97 1.76 1.69 1.11 2.99 2.93t2.08 3.58 1.3 4.36q0.586 2.6 0.846 4.62 0.26 2.02 0.326 5.01 0.13 2.93 0.13 4.82 0 1.89-0.0651 4.82t-0.0651 4.36z"/>
		<path d="m725 293q-3.58-0.26-7.81 1.43-4.23 1.63-6.84 3.78-2.34 1.95-3.97 4.56-1.56 2.54-2.73 6.64-2.28 7.81-2.28 19.9h23.8zm8.85 0.0651v36.3h23.8q-0.0651-11.4-2.54-20.1-1.24-4.04-2.8-6.58-1.56-2.6-3.91-4.56-2.6-2.08-6.77-3.71-4.17-1.63-7.81-1.3zm-60.5 48.8q7.42-4.75 13.2-15.4 5.79-10.7 7.49-22.1 1.11-7.62 0.716-15.6-0.391-8.01-1.69-14.8-1.24-6.77-2.93-11.1-3.06-7.49-7.94-15.4 0.521 0 2.15 0 1.69-0.0651 2.73 0 1.11 0 2.93 0.0651 1.89 0 3.12 0.195 1.3 0.195 2.93 0.521t2.73 0.911q1.11 0.521 2.08 1.3 0.977 0.716 1.5 1.82 0.521 1.04 0.521 2.41v36.6q26.5-21.7 53.1 0v-36.6q0-1.89 1.17-3.39 1.17-1.5 2.86-2.28 1.76-0.781 3.39-1.17 1.63-0.391 2.86-0.391h10.4q-3.26 6.12-5.14 10.1-1.82 3.91-3.78 9.24-2.54 7.03-3.06 18.6-0.456 11.5 1.24 19.7 0.716 3.84 1.37 6.77 0.716 2.93 1.82 6.77 1.11 3.78 2.54 6.84 1.43 3.06 3.39 6.18 1.95 3.12 4.62 5.73 2.67 2.54 5.86 4.43z"/>
		<path d="m918 268q0.13 2.8-1.17 5.73-1.24 2.93-3.32 4.36-3.45 2.28-7.42 2.41-3.91 0.0651-7.29-1.63-3.32-1.76-5.6-4.75-2.34-3.12-2.73-6.45-0.326-3.39 0.846-6.05 1.17-2.73 3.52-5.01 9.05-8.98 20.1-8.98 5.14 0.0651 9.64 1.89 4.56 1.76 9.11 5.6 7.1 5.99 10.7 19.7 2.99 10.9 1.3 23.1-3.06 22-12.9 32.6-9.77 10.6-27.5 11.7-12.8 0.781-23.3-4.82-10.5-5.6-16.5-16.7-6.77-12.4-6.84-26.4-0.0651-6.64 0.977-12 1.11-5.47 4.04-10.9 3.06-5.86 5.66-9.44 2.67-3.58 6.84-6.58-3.84 8.72-4.17 14-0.781 10.9 3.26 21.4 4.04 10.4 10.7 16.3 4.3 3.78 9.7 5.79 5.47 2.02 10.9 1.95 5.47-0.13 10.5-1.76 5.08-1.69 9.11-5.27 4.1-3.58 6.32-8.46 4.3-9.57 3.45-17.8-1.04-9.37-4.95-15.5-3.91-6.12-11-10.1-1.82-1.04-4.82-1.56-2.93-0.521-5.34-0.0651-2.34 0.456-2.21 2.15 0.13 1.11 1.3 1.82 1.24 0.716 3.12 1.37t2.6 1.17q1.69 1.17 2.41 2.86 0.716 1.63 0.846 4.23z"/>
		<path d="m433 152q-3.71-3.12-5.01-7.81-1.3-4.75 0.26-9.18 1.56-4.43 5.6-6.71 2.28-1.3 5.47-1.24 3.26 0 6.38 1.24 3.19 1.24 5.73 4.1 2.6 2.8 3.45 6.71 2.86-3.12 4.3-8.4 1.5-5.27 1.3-10.9-0.13-5.6-1.76-10.2-2.67-7.55-9.18-12.9-4.69-3.78-10.3-5.21-5.53-1.5-11.1-0.911-11.1 1.24-18.6 12.1-2.6 3.84-4.04 9.18-1.37 5.27-1.24 10.8 0.13 7.88 4.49 15t11.7 11.4q5.92 3.32 12.5 2.86zm31.7-57q5.92 6.05 9.37 13.7 3.52 7.55 3.71 15.1 0.326 11.9-2.41 20.4-3.65 11.3-10.4 19.1-6.77 7.75-16.5 10.9-5.47 1.76-13 1.95-7.49 0.195-12.5-1.11-6.84-1.56-12.7-5.66-5.86-4.17-10.3-10.1-4.23-5.6-6.77-12.2-2.54-6.58-2.99-12.9-1.11-16.1 5.08-28.7 3.39-6.97 8.53-12.1 5.14-5.21 11.1-8.01 5.92-2.86 12.6-3.71 6.71-0.911 13.2 0.326 6.45 1.17 12.7 4.56 6.32 3.32 11.3 8.53z"/>
		<path d="m427 318q-3.71-3.12-5.01-7.81-1.3-4.75 0.26-9.18 1.56-4.43 5.6-6.71 2.28-1.3 5.47-1.24 3.26 0 6.38 1.24 3.19 1.24 5.73 4.1 2.6 2.8 3.45 6.71 2.86-3.12 4.3-8.4 1.5-5.27 1.3-10.9-0.13-5.6-1.76-10.2-2.67-7.55-9.18-12.9-4.69-3.78-10.3-5.21-5.53-1.5-11.1-0.911-11.1 1.24-18.6 12.1-2.6 3.84-4.04 9.18-1.37 5.27-1.24 10.8 0.13 7.88 4.49 15t11.7 11.4q5.92 3.32 12.5 2.86zm31.7-57q5.92 6.05 9.37 13.7 3.52 7.55 3.71 15.1 0.326 11.9-2.41 20.4-3.65 11.3-10.4 19.1-6.77 7.75-16.5 10.9-5.47 1.76-13 1.95-7.49 0.195-12.5-1.11-6.84-1.56-12.7-5.66-5.86-4.17-10.3-10.1-4.23-5.6-6.77-12.2-2.54-6.58-2.99-12.9-1.11-16.1 5.08-28.7 3.39-6.97 8.53-12.1 5.14-5.21 11.1-8.01 5.92-2.86 12.6-3.71 6.71-0.911 13.2 0.326 6.45 1.17 12.7 4.56 6.32 3.32 11.3 8.53z"/>
	</g>
</svg>
