<?xml version="1.0" encoding="utf-8"?>
<svg version="1.1" xmlns="http://www.w3.org/2000/svg" viewBox="0 0 80 50">
	<style>.symbolFill{fill: #08E;} .symbolLine{stroke: #08E;}</style>
	<rect width="80" height="50" fill="#08E"/>
	<rect width="40" height="25" fill="white"/>
	<use href="../symbolMadokami.svg#init" transform="scale(.5)"/>
	<circle cx="60" cy="30" r="15" fill="none" stroke="gold" stroke-width="2"/>
	<path fill="gold" d="m61.1 19.8c-1.35 0.0557-2.57 0.653-3.67 1.79-1.1 1.14-1.91 2.48-2.43 4.04h-1.54c-0.238 0.0067-0.437 0.0977-0.596 0.273-0.158 0.176-0.24 0.396-0.246 0.66 0.0057 0.264 0.0876 0.484 0.246 0.66 0.158 0.176 0.357 0.267 0.596 0.273h1.07l-1.92 8.47c-0.152 0.725-0.393 1.37-0.723 1.95-0.33 0.576-0.795 0.881-1.4 0.914h-0.174c-0.18 0.0053-0.335-0.0135-0.465-0.0566-0.129-0.043-0.197-0.141-0.203-0.297 0.0458-0.434 0.229-0.725 0.551-0.873 0.322-0.148 0.507-0.448 0.553-0.898-0.0079-0.396-0.131-0.723-0.367-0.982-0.236-0.259-0.539-0.393-0.91-0.402-0.495 0.0248-0.87 0.282-1.12 0.77-0.255 0.488-0.384 1.06-0.385 1.71 0.0178 0.808 0.265 1.48 0.74 2.01 0.475 0.531 1.07 0.805 1.79 0.824 0.958-0.0423 1.86-0.515 2.71-1.42 0.85-0.905 1.59-1.99 2.22-3.24 0.631-1.26 1.1-2.44 1.4-3.55l1.36-4.93h0.494 1.22 2.91 1.07l-1.92 8.47c-0.152 0.725-0.391 1.37-0.721 1.95-0.33 0.576-0.797 0.881-1.4 0.914h-0.174c-0.18 0.0053-0.335-0.0135-0.465-0.0566-0.129-0.043-0.197-0.141-0.203-0.297 0.0458-0.434 0.231-0.725 0.553-0.873 0.322-0.148 0.505-0.448 0.551-0.898-0.0079-0.396-0.129-0.723-0.365-0.982-0.236-0.259-0.541-0.393-0.912-0.402-0.495 0.0248-0.87 0.282-1.12 0.77-0.255 0.488-0.384 1.06-0.385 1.71 0.0178 0.808 0.265 1.48 0.74 2.01 0.475 0.531 1.07 0.805 1.79 0.824 0.958-0.0423 1.86-0.515 2.71-1.42 0.85-0.905 1.59-1.99 2.22-3.24 0.631-1.26 1.09-2.44 1.39-3.55l1.37-4.93h1.71c0.238-0.0067 0.435-0.0977 0.594-0.273 0.158-0.176 0.242-0.396 0.248-0.66-6e-3 -0.264-0.0896-0.484-0.248-0.66-0.158-0.176-0.355-0.267-0.594-0.273h-1.22c0.197-0.969 0.465-1.87 0.803-2.69 0.338-0.82 0.874-1.26 1.61-1.31h0.203c0.166-0.0046 0.313 0.0131 0.439 0.0527 0.126 0.0396 0.193 0.129 0.199 0.27-0.0458 0.45-0.229 0.75-0.551 0.898-0.322 0.148-0.507 0.439-0.553 0.873 0.0098 0.397 0.135 0.73 0.377 0.998 0.242 0.268 0.542 0.407 0.9 0.418 0.507-0.0268 0.887-0.286 1.14-0.779 0.25-0.494 0.374-1.06 0.373-1.7-0.0178-0.81-0.265-1.49-0.74-2.03-0.475-0.54-1.07-0.819-1.79-0.84-1.35 0.0557-2.57 0.653-3.67 1.79-1.1 1.14-1.91 2.48-2.43 4.04h-0.465-1.07-2.91-1.22c0.197-0.969 0.463-1.87 0.801-2.69 0.338-0.82 0.874-1.26 1.61-1.31h0.203c0.166-0.0046 0.313 0.0132 0.439 0.0527 0.126 0.0396 0.193 0.129 0.199 0.27-0.0458 0.45-0.229 0.75-0.551 0.898-0.322 0.148-0.505 0.439-0.551 0.873 0.0098 0.397 0.135 0.73 0.377 0.998 0.242 0.268 0.542 0.407 0.9 0.418 0.507-0.0268 0.885-0.286 1.13-0.779 0.25-0.494 0.374-1.06 0.373-1.7-0.0181-0.81-0.265-1.49-0.74-2.03-0.475-0.54-1.07-0.819-1.79-0.84z"/>
</svg>
