<?xml version="1.0" encoding="UTF-8"?>
<svg version="1.1" xmlns="http://www.w3.org/2000/svg" viewBox="0 0 40 40" id="init">
	<style>.symbolFill{fill: white;} .symbolLine{stroke: white;}</style>
	<g class="symbolLine" fill="none" stroke-width="1">
		<rect x="10" y="10" width="20" height="20"/>
		<polygon points="20 05 35 20 20 35 05 20"/>
		<ellipse cx="20" cy="20" rx="6" ry="6"/>
		<ellipse cx="20" cy="20" rx="3" ry="6"/>
	</g><g class="symbolFill">
		<path d="m14.1 21a6 6 0 0 0 6 5 6 6 0 0 0 6-5l-6 2z"/>
		<polygon points="20,13 18,13.8 20,15 22,13.8"/>
		<polygon points="20,12 19,13.8 20,15 21,13.8"/>
		<polygon points="17.5,26.5 15.8,28 24.2,28 22.5,26.5"/>
		<ellipse rx="3" ry="1.4" cx="20" cy="26"/>
		<circle r="1" cx="20" cy="23"/>
		<circle r="1" cx="20" cy="12"/>
	</g>
</svg>
