<?xml version="1.0" encoding="UTF-8"?>
<svg version="1.1" viewBox="0 0 80 50" xmlns="http://www.w3.org/2000/svg">
	<rect width="80" height="50" fill="#08e"/>
	<g fill="gold">
		<path d="m33.5 19.9v0.84h-4q0 0.112-0.448 1.9-1.51 6.1-3.02 9.21-2.04 4.31-5.32 6.27-1.18 0.728-2.66 0.728-2.35 0-3.08-1.34-0.448-0.784-0.448-1.6 0-1.18 0.868-1.99 0.84-0.784 1.76-0.616 1.74 0.308 1.74 1.76 0 0.42-0.14 0.896-0.392 0.98-1.4 1.23-0.364 0.084-0.364 0.336t0.336 0.42q0.308 0.196 0.784 0.14 0.84-0.084 2.1-1.9 1.46-2.13 2.63-6.16 0.84-3.22 1.65-6.44 0.532-1.96 0.532-2.86h-2.74v-0.84h3.08q-0.028-0.448 0.504-1.99 0.784-2.13 2.1-3.67 1.82-2.13 4.42-2.8 0.952-0.252 1.85-0.252 1.82 0 3 0.952 1.18 0.924 1.18 2.44 0 1.2-0.644 1.85-0.56 0.532-1.32 0.532-0.784 0-1.2-0.476t-0.42-1.12q0-0.896 0.672-1.51 0.196-0.224 0.952-0.308t0.812-0.336q0.224-0.896-1.51-0.896-1.09 0-1.93 0.364-3.47 1.57-4.03 7.22z"/>
		<path d="m47 19.9v0.84h-4q0 0.112-0.448 1.9-1.51 6.1-3.02 9.21-2.04 4.31-5.32 6.27-1.18 0.728-2.66 0.728-2.35 0-3.08-1.34-0.448-0.784-0.448-1.6 0-1.18 0.868-1.99 0.84-0.784 1.76-0.616 1.74 0.308 1.74 1.76 0 0.42-0.14 0.896-0.392 0.98-1.4 1.23-0.364 0.084-0.364 0.336t0.336 0.42q0.308 0.196 0.784 0.14 0.84-0.084 2.1-1.9 1.46-2.13 2.63-6.16 0.84-3.22 1.65-6.44 0.532-1.96 0.532-2.86h-2.74v-0.84h3.08q-0.028-0.448 0.504-1.99 0.784-2.13 2.1-3.67 1.82-2.13 4.42-2.8 0.952-0.252 1.85-0.252 1.82 0 3 0.952 1.18 0.924 1.18 2.44 0 1.2-0.644 1.85-0.56 0.532-1.32 0.532-0.784 0-1.2-0.476t-0.42-1.12q0-0.896 0.672-1.51 0.196-0.224 0.952-0.308t0.812-0.336q0.224-0.896-1.51-0.896-1.09 0-1.93 0.364-3.47 1.57-4.03 7.22z"/>
		<path d="m60.6 19.9v0.84h-4q0 0.112-0.448 1.9-1.51 6.1-3.02 9.21-2.04 4.31-5.32 6.27-1.18 0.728-2.66 0.728-2.35 0-3.08-1.34-0.448-0.784-0.448-1.6 0-1.18 0.868-1.99 0.84-0.784 1.76-0.616 1.74 0.308 1.74 1.76 0 0.42-0.14 0.896-0.392 0.98-1.4 1.23-0.364 0.084-0.364 0.336t0.336 0.42q0.308 0.196 0.784 0.14 0.84-0.084 2.1-1.9 1.46-2.13 2.63-6.16 0.84-3.22 1.65-6.44 0.532-1.96 0.532-2.86h-2.74v-0.84h3.08q-0.028-0.448 0.504-1.99 0.784-2.13 2.1-3.67 1.82-2.13 4.42-2.8 0.952-0.252 1.85-0.252 1.82 0 3 0.952 1.18 0.924 1.18 2.44 0 1.2-0.644 1.85-0.56 0.532-1.32 0.532-0.784 0-1.2-0.476t-0.42-1.12q0-0.896 0.672-1.51 0.196-0.224 0.952-0.308t0.812-0.336q0.224-0.896-1.51-0.896-1.09 0-1.93 0.364-3.47 1.57-4.03 7.22z"/>
	</g>
</svg>
