<?xml version="1.0" encoding="UTF-8"?>
<svg version="1.1" xmlns="http://www.w3.org/2000/svg" viewBox="0 0 30 20">
	<rect width="30" height="20" fill="#E33"/>
	<g stroke="gold" stroke-width="3">
		<line x2="30" y1="10" y2="10"/>
		<line x1="15" x2="15" y2="20"/>
	</g><g fill="white">
		<path d="m15 4-4.95 4.95a3 3 0 0 0 0 4.24 3 3 0 0 0 4.24 0 3 3 0 0 0 0.709-1.13 3 3 0 0 0 0.705 1.13 3 3 0 0 0 4.24 0 3 3 0 0 0 0-4.24l-1.41-1.41z"/>
		<rect x="14" y="10.5" width="2" height="6"/>
	</g>
	<ellipse cx="15" cy="9" rx="2" ry="3" fill="firebrick" stroke="#c0c0c0" stroke-width=".4"/>
</svg>
