<?xml version="1.0" encoding="UTF-8"?>
<svg version="1.1" viewBox="0 0 400 69" xmlns="http://www.w3.org/2000/svg">
	<g fill="#fff">
		<path d="m196 4c-3.6 3.7-3.7 6.2-0.14 9.8 3.4 3.4 7.1 3.5 10 0.21 6.5-7.2-2.8-16-10-10zm-121 39c-6.7 7.8-0.75 17 13 20 17 3.7 31-8.5 22-18-3.5-3.5-7-3.7-3.7-0.24 4.3 4.7 1.7 11-5.3 13-2.4 0.56-2.8 0.2-2.8-4.4 0-4.7-0.31-5.1-4.4-5.5-4.8-0.54-8.3 3.5-6.8 7.4 1.2 3-1.2 2.3-6-1.7-3.7-3.2-4.3-4.4-3.6-8.3 0.68-5.1 0.6-5.5-1.7-2.7zm12-40c-18 5.8-23 13-16 22 4.3 5.1 10 7.3 6.9 2.6-4.3-6.1-1.7-13 5.8-15 2.6-0.8 3.1-0.33 3.3 3.6 0.86 7.4 10 6.9 10-0.5v-5l3.8 2.2c6.4 3.8 9.8 13 5.6 15-3.2 1.8-1.3 3.5 2.8 2.4 11-2.7 6.1-21-6.8-27-4.5-1.9-12-2.3-16-0.99zm252 1c-4.6 3.3-2.9 14 2.2 15 0.44 0.012 0.52-1.8 0.19-4.3-0.5-3.3-0.13-4 2-4 4 0 4.6 2.3 4.6 23 0 22-1.8 27-8 24-4.6-2.3-4.1 1.9 0.37 4.8 7.4 4.9 11-0.27 14-18l1.5-12 24 0.79 0.99 11c1.1 12 5.4 20 10 17 3.4-2.3 3.7-4.4 0.64-5.3-7.3-2.3-5.8-38 2-49l3.4-4.5h-27c-21 0-28 0.24-30 1.9z"/>
		<path d="m12 3.5c-2 1.1-3.7 2.8-3.7 3.7 0 1.2 0.42 1.2 1.7-0.22 2.8-2.6 7.8-1.7 10 2 3 4.4 1.8 9.3-2.7 12-4.5 2.8-4.4 4.8 0.13 3.8 5-1 6 1.5 6.1 14l0.075 11 2.1-4.8c4.7-11 10-13 18-8.3 12 7.3 5.9 21-9.5 21-14 0.13-18-4.2-14-14 1-3 4.5-9.3-5.6-6-9.1 3.6 0.2 22 13 25 32 8.5 51-38 24-56-4.1-2.8-6.2-3.2-16-2.9-6.4 0.18-12-0.38-14-1.3-3.6-2-4.3-2-9 0.55zm233 0.16c-16 4.2-20 25-4 25 7.5 0 14-11 7.4-13-5.2-1.6-9.6 5.2-4.8 7.1 3.8 1.4 2.2 3.4-2.4 3-3.5-0.34-4.5-1.1-5-3.7-1.7-13 12-16 20-5.6 4.8 6.5 2.4 22-3 20-14-6.8-28 11-18 22 16 16 45-2 30-18-2.7-2.8-2.8-3.5-0.88-6.5 10-16-1.5-35-19-30m7.6 34c0 0.52-1.9 2.7-4.4 4.9-5.1 5-4.8 8.9 0.98 8.9 3.6 0 4-0.44 3.9-3.8-0.34-4.9 5.8-7.1 8.8-3 2.7 3.7 2.3 5.8-1.7 9.8-9.1 9.1-27-2.4-20-12 3.1-3.9 12-7.2 12-4.5m-129-28c-0.48 0.77 0.55 1.3 2.4 1.3 8.4 0 13 11 5 13l-4.3 1 8.4 5.3v16c0 15-0.01 16-2.5 16-1.5 0-3.1 0.69-3.5 1.4-0.54 0.87 2.9 1.4 9.2 1.4h10l-0.5-11c-0.28-6.1-0.089-11 0.41-11 11 0 15 4.2 11 14-1.3 3-2 5.7-2 5.8-0.011 0.29 5.3 0.45 12 0.45 6.4 0 12-0.16 12-0.45-3e-3 -0.086-1.7-3.3-3.4-7-1.9-3.7-3.4-8-3.4-9.2 0-6.2-1.2-6.8-13-6.8h-11l-0.91-5c-1.4-6.8-0.39-7.4 11-7.4 8.7 0 9.5-0.24 8-2.1-0.98-1.2-1.8-4.7-1.8-7.9v-5.8l-11 0.49c-8 0.34-14-0.21-18-1.7-7.8-2.6-11-2.8-12-0.83z"/>
		<path d="m185 8.7c-2.5 9.8 4.5 21 16 24l7.6 2.5v19l-7.4 0.42c-4.9 0.096-8.6-0.28-11-1.9-4.5-2.8-4.8-2.6-4.7 2.5 0.034 7.1 0.77 7.5 20 8.4l18 0.88-0.9-20c-0.97-18-0.63-20 1.8-26 3-6.6 2.7-8-2.1-8-2.4 0-3.4 0.8-3.4 2.6 0 15-23 14-30-1.6-3.2-7.1-3.2-7.1-4.2-3.3zm101-6.2-8.3 0.85 9.5 1c11 1.2 11 1.1 8.5 6.4-1.2 2.3-2.6 7.1-3.1 11l-0.88 6.3-3.7-3.7c-4.7-4.3-7.5-3.4-11 3.9-6.1 12-6.3 33-0.2 36 4.9 2.2 5.9 0.16 6.5-13 0.73-19 6.5-26 8.4-11 2.3 19 18 29 32 21 14-7.3 7.4-32-7.3-26-7.7 3.3-8.2 13-0.66 13 4 0 5-4.3 1.5-7-3.9-3.3-3.8-4 0.52-4 4.5 0 10 5.8 10 10 0 14-26 13-28-1.1-2.5-16 11-43 20-41 1.5 0.4 3 0.083 3.5-0.41 1.4-2.3-24-4.3-37-2.9z"/>
	</g>
</svg>
